<?xml version="1.0" encoding="UTF-8"?>
<svg id="a" data-name="Layer 1" xmlns="http://www.w3.org/2000/svg" viewBox="0 0 610 238.32">
  <defs>
    <style>
      .b {
        fill: #19335b;
      }
    </style>
  </defs>
  <g>
    <path class="b" d="M301.77,92.9h-27.48l-5.24,12.68h-14.04l26.38-59.19h13.53l26.47,59.19h-14.38l-5.24-12.68ZM297.46,82.49l-9.39-22.66-9.39,22.66h18.77Z"/>
    <path class="b" d="M323,75.98c0-17.84,13.7-30.61,32.13-30.61,10.23,0,18.77,3.72,24.35,10.49l-8.79,8.12c-3.97-4.57-8.96-6.93-14.88-6.93-11.08,0-18.94,7.78-18.94,18.94s7.86,18.94,18.94,18.94c5.92,0,10.91-2.37,14.88-7.02l8.79,8.12c-5.58,6.85-14.12,10.57-24.44,10.57-18.35,0-32.05-12.77-32.05-30.61Z"/>
    <path class="b" d="M383.71,75.98c0-17.84,13.7-30.61,32.13-30.61,10.23,0,18.77,3.72,24.35,10.49l-8.79,8.12c-3.97-4.57-8.96-6.93-14.88-6.93-11.08,0-18.94,7.78-18.94,18.94s7.86,18.94,18.94,18.94c5.92,0,10.91-2.37,14.88-7.02l8.79,8.12c-5.58,6.85-14.12,10.57-24.44,10.57-18.35,0-32.05-12.77-32.05-30.61Z"/>
    <path class="b" d="M495.25,94.59v10.99h-45.83v-59.19h44.73v10.99h-31.12v12.85h27.48v10.65h-27.48v13.7h32.22Z"/>
    <path class="b" d="M501.51,99.74l4.65-10.32c4.99,3.64,12.43,6.17,19.53,6.17,8.12,0,11.42-2.71,11.42-6.34,0-11.08-34.42-3.47-34.42-25.45,0-10.06,8.12-18.44,24.95-18.44,7.44,0,15.05,1.78,20.55,5.24l-4.23,10.4c-5.5-3.13-11.16-4.65-16.41-4.65-8.12,0-11.25,3.04-11.25,6.77,0,10.91,34.42,3.38,34.42,25.12,0,9.89-8.2,18.35-25.12,18.35-9.39,0-18.86-2.79-24.1-6.85Z"/>
    <path class="b" d="M555.45,99.74l4.65-10.32c4.99,3.64,12.43,6.17,19.53,6.17,8.12,0,11.42-2.71,11.42-6.34,0-11.08-34.42-3.47-34.42-25.45,0-10.06,8.12-18.44,24.95-18.44,7.44,0,15.05,1.78,20.55,5.24l-4.23,10.4c-5.5-3.13-11.16-4.65-16.41-4.65-8.12,0-11.25,3.04-11.25,6.77,0,10.91,34.42,3.38,34.42,25.12,0,9.89-8.2,18.35-25.12,18.35-9.39,0-18.86-2.79-24.1-6.85Z"/>
  </g>
  <g>
    <path class="b" d="M263.22,127.23v52.5h34.38v5.66h-40.65v-58.15h6.27Z"/>
    <path class="b" d="M358.93,157.99v21.74h36.59v5.66h-42.86v-58.15h41.1v5.66h-34.82v19.8h31.29v5.3h-31.29Z"/>
    <path class="b" d="M496.79,127.23h6.27v58.15h-5.66l-38.98-48.25h-.18s.62,9.28.62,14.23v34.03h-6.27v-58.15h5.74l38.89,48.25h.18s-.62-10.69-.62-14.05v-34.2Z"/>
    <path class="b" d="M561.75,180.97l2.12-5.39c4.86,2.39,11.75,4.86,19.44,4.86,11.22,0,16.44-5.66,16.44-12.02,0-3.36-1.5-6.01-4.42-7.6-2.47-1.41-6.98-2.21-12.46-2.83-6.01-.71-10.69-1.59-14.23-3.45-5.39-2.74-7.42-7.07-7.42-12.2,0-9.1,8.75-16.17,21.74-16.17,7.96,0,14.32,1.68,19.53,4.24l-2.03,5.3c-4.33-2.03-10.96-3.89-17.5-3.89-10.69,0-15.47,5.04-15.47,10.52,0,3,1.15,5.48,4.6,7.42,2.56,1.33,6.63,1.86,12.02,2.56,5.75.71,11.14,1.77,14.14,3.36,5.13,2.83,7.78,6.98,7.78,12.73,0,9.54-8.22,17.68-22.71,17.68-9.1,0-15.73-1.94-21.56-5.13Z"/>
  </g>
  <g>
    <circle class="b" cx="102.99" cy="70.54" r="11.92"/>
    <path class="b" d="M102.99,82.96c-6.85,0-12.42-5.57-12.42-12.42s5.57-12.42,12.42-12.42,12.42,5.57,12.42,12.42-5.57,12.42-12.42,12.42ZM102.99,59.13c-6.29,0-11.42,5.12-11.42,11.42s5.12,11.42,11.42,11.42,11.42-5.12,11.42-11.42-5.12-11.42-11.42-11.42Z"/>
  </g>
  <g>
    <path class="b" d="M102.13,28.33c-40.69,0-73.8,33.11-73.8,73.8s33.11,73.8,73.8,73.8,73.8-33.11,73.8-73.8S142.83,28.33,102.13,28.33ZM102.13,43.33c20.46,0,38.51,10.51,49.05,26.42-9.97,7.28-50.84,32.66-97.71-.59,10.59-15.58,28.45-25.83,48.66-25.83ZM43.33,102.13c0-8.09,1.64-15.81,4.61-22.83,7.55,3.83,40.65,21.45,39.33,35.24-1.35,14.14-13.33,34.32-15.52,37.91-17.02-10.31-28.42-29.01-28.42-50.33ZM82.96,157.71c2.4-4.03,13.97-22.92,20.03-22.83,5.9.09,17.38,17.55,20.28,22.11-6.57,2.54-13.69,3.95-21.14,3.95-6.71,0-13.16-1.15-19.17-3.23ZM135.19,150.73c-4.48-5.92-15.35-21.59-16.69-35.59-.27-13.57,31.3-31.83,37.94-35.52,2.89,6.94,4.49,14.54,4.49,22.51,0,20.17-10.22,38-25.74,48.6Z"/>
    <path class="b" d="M82.71,159.13l-12.02-5.9.29-.47c.14-.23,14.33-22.98,15.79-38.25,1.44-15.04-40.15-35.3-40.57-35.5l-.46-.22,5.85-11.58.48.35c28.1,20.72,54.08,19.62,70.92,15.06,18.28-4.95,30.07-14.94,30.19-15.04l.54-.46,4.57,12.08-.39.21c-.39.21-39.19,21.05-38.9,35.74,1.65,17.29,18.32,37.53,18.49,37.73l.45.54-14.2,5.28-.22-.35c-3.9-6.36-15.21-22.89-20.55-22.96h-.04c-5.34,0-16.24,16.84-20,23.35l-.23.41ZM72.12,152.81l10.19,5c1.9-3.24,14.05-23.44,20.64-23.44h.05c6.59.1,19.29,20.07,21.17,23.09l12.12-4.51c-2.69-3.38-16.75-21.75-18.28-37.77-.29-14.7,34.69-34.12,39.04-36.47l-3.76-9.95c-2.54,2.02-13.73,10.38-29.99,14.79-16.97,4.6-43.09,5.74-71.34-14.86l-4.86,9.62c2.15,1.06,11.49,5.8,20.59,11.98,13.96,9.47,20.72,17.65,20.08,24.3-1.36,14.27-13.6,34.85-15.65,38.22Z"/>
  </g>
  <path class="b" d="M234.14,208.44l-34.76-34.76-4.48,4.48-12.69-12.69c13.81-17.42,22.07-39.43,22.07-63.33C204.26,45.82,158.45,0,102.13,0S0,45.82,0,102.13s45.82,102.13,102.13,102.13c24.48,0,46.97-8.66,64.58-23.07l12.57,12.57-4.72,4.72,35.75,35.75c8.12,6.81,16.46,4.66,23.26-3.38,6.99-6.84,7.95-14.35.57-22.43ZM102.13,184.26c-45.29,0-82.13-36.84-82.13-82.13S56.84,20,102.13,20s82.13,36.84,82.13,82.13-36.84,82.13-82.13,82.13Z"/>
</svg>