<?xml version="1.0" encoding="UTF-8"?>
<svg id="Light_Mode" xmlns="http://www.w3.org/2000/svg" version="1.1" viewBox="0 0 538.85 154.77">
  <!-- Generator: Adobe Illustrator 30.1.0, SVG Export Plug-In . SVG Version: 2.1.1 Build 136)  -->
  <defs>
    <style>
      .st0 {
        fill: #eaeaea;
      }

      .st1 {
        fill: #3d3d3d;
      }

      .st2 {
        display: none;
      }
    </style>
  </defs>
  <g id="Dark" class="st2">
    <g id="Access_Lense">
      <g>
        <path class="st0" d="M235.75,63.53h-28.17l-5.37,13h-13.45l26.3-59h13.49l26.39,59h-13.79l-5.37-13ZM231.1,53.53l-9.39-22.66-9.39,22.66h18.78Z"/>
        <path class="st0" d="M256.64,46.54c0-17.84,13.7-30.61,32.13-30.61,10.23,0,18.77,3.72,24.35,10.49l-8.79,8.12c-3.97-4.57-8.96-6.93-14.88-6.93-11.08,0-18.94,7.78-18.94,18.94s7.86,18.94,18.94,18.94c5.92,0,10.91-2.37,14.88-7.02l8.79,8.12c-5.58,6.85-14.12,10.57-24.44,10.57-18.35,0-32.05-12.77-32.05-30.61h0Z"/>
        <path class="st0" d="M317.35,46.54c0-17.84,13.7-30.61,32.13-30.61,10.23,0,18.77,3.72,24.35,10.49l-8.79,8.12c-3.97-4.57-8.96-6.93-14.88-6.93-11.08,0-18.94,7.78-18.94,18.94s7.86,18.94,18.94,18.94c5.92,0,10.91-2.37,14.88-7.02l8.79,8.12c-5.58,6.85-14.12,10.57-24.44,10.57-18.35,0-32.05-12.77-32.05-30.61h0Z"/>
        <path class="st0" d="M428.34,65.54v10.99h-45V17.53h44v10h-30v13h27v11h-28v14h32Z"/>
        <path class="st0" d="M435.15,70.53l4.65-10.32c4.99,3.64,12.43,6.17,19.53,6.17,8.12,0,11.42-2.71,11.42-6.34,0-11.08-34.42-3.47-34.42-25.45,0-10.06,8.12-18.44,24.95-18.44,7.44,0,15.05,1.78,20.55,5.24l-4.23,10.4c-5.5-3.13-11.16-4.65-16.41-4.65-8.12,0-11.25,3.04-11.25,6.77,0,10.91,34.42,3.38,34.42,25.12,0,9.89-8.2,18.35-25.12,18.35-9.39,0-18.86-2.79-24.1-6.85h0Z"/>
        <path class="st0" d="M489.09,70.53l4.65-10.32c4.99,3.64,12.43,6.17,19.53,6.17,8.12,0,11.42-2.71,11.42-6.34,0-11.08-34.42-3.47-34.42-25.45,0-10.06,8.12-18.44,24.95-18.44,7.44,0,15.05,1.78,20.55,5.24l-4.23,10.4c-5.5-3.13-11.16-4.65-16.41-4.65-8.12,0-11.25,3.04-11.25,6.77,0,10.91,34.42,3.38,34.42,25.12,0,9.89-8.2,18.35-25.12,18.35-9.39,0-18.86-2.79-24.1-6.85h0Z"/>
      </g>
      <g>
        <path class="st0" d="M196.34,95.52v53.01h34v5h-40v-58h6Z"/>
        <path class="st0" d="M292.34,126.52v22.01h36v5h-43v-58h41v6h-35v20h32v5h-31Z"/>
        <path class="st0" d="M429.35,96.53h5.99v57h-5.63l-38.78-48h-.18s.59,9.23.59,14.15v33.85h-6v-57h5.71l38.69,48h.19s-.59-10.63-.59-13.97v-34.02h0Z"/>
        <path class="st0" d="M494.57,149.65l2.12-5.39c4.86,2.39,11.75,4.86,19.44,4.86,11.22,0,16.44-5.66,16.44-12.02,0-3.36-1.5-6.01-4.42-7.6-2.47-1.41-6.98-2.21-12.46-2.83-6.01-.71-10.69-1.59-14.23-3.45-5.39-2.74-7.42-7.07-7.42-12.2,0-9.1,8.75-16.17,21.74-16.17,7.96,0,14.32,1.68,19.53,4.24l-2.03,5.3c-4.33-2.03-10.96-3.89-17.5-3.89-10.69,0-15.47,5.04-15.47,10.52,0,3,1.15,5.48,4.6,7.42,2.56,1.33,6.63,1.86,12.02,2.56,5.75.71,11.14,1.77,14.14,3.36,5.13,2.83,7.78,6.98,7.78,12.73,0,9.54-8.22,17.68-22.71,17.68-9.1,0-15.73-1.94-21.56-5.13h-.01Z"/>
      </g>
    </g>
    <g id="Magnifying_Glass">
      <g>
        <path class="st0" d="M66.38,0C29.78,0,0,29.78,0,66.38s29.78,66.38,66.38,66.38,66.38-29.78,66.38-66.38S102.99,0,66.38,0ZM66.38,13.49c18.4,0,34.64,9.45,44.12,23.76-8.97,6.55-45.73,29.38-87.89-.53,9.53-14.01,25.59-23.23,43.77-23.23ZM13.8,66.38c0-7.28,1.48-14.22,4.15-20.54,6.79,3.45,36.56,19.29,35.38,31.7-1.21,12.72-11.99,30.87-13.96,34.1-15.31-9.27-25.56-26.09-25.56-45.27h0ZM49.14,116.38c2.16-3.62,12.57-20.62,18.02-20.54,5.31.08,15.63,15.79,18.24,19.89-5.91,2.28-12.31,3.55-19.02,3.55-6.04,0-11.84-1.03-17.24-2.91ZM96.12,110.1c-4.03-5.32-13.81-19.42-15.01-32.01-.24-12.21,28.15-28.63,34.13-31.95,2.6,6.24,4.04,13.08,4.04,20.25,0,18.14-9.19,34.18-23.15,43.71Z"/>
        <path class="st0" d="M48.91,118.07l-10.81-5.31.26-.42c.13-.21,12.89-20.67,14.2-34.41,1.3-13.53-36.11-31.75-36.49-31.93l-.41-.2,5.26-10.42.43.31c25.28,18.64,48.64,17.65,63.79,13.55,16.44-4.45,27.05-13.44,27.16-13.53l.49-.41,4.11,10.87-.35.19c-.35.19-35.25,18.93-34.99,32.15,1.48,15.55,16.48,33.76,16.63,33.94l.4.49-12.77,4.75-.2-.31c-3.51-5.72-13.68-20.59-18.48-20.65h-.04c-4.8,0-14.61,15.15-17.99,21l-.21.37v-.02ZM39.39,112.41l9.17,4.5c1.71-2.91,12.64-21.08,18.57-21.08h.04c5.93.09,17.35,18.05,19.04,20.77l10.9-4.06c-2.42-3.04-15.07-19.56-16.44-33.97-.26-13.22,31.2-30.69,35.12-32.8l-3.38-8.95c-2.28,1.82-12.35,9.34-26.98,13.3-15.26,4.14-38.76,5.16-64.17-13.37l-4.37,8.65c1.93.95,10.34,5.22,18.52,10.78,12.56,8.52,18.64,15.88,18.06,21.86-1.22,12.84-12.23,31.35-14.08,34.38h0Z"/>
      </g>
      <path class="st0" d="M149.62,134.68l-21.94-21.94-2.83,2.83-8.01-8.01-9.78,9.92,7.93,7.93-2.98,2.98,22.57,22.57c5.13,4.3,10.39,2.94,14.68-2.13,4.41-4.32,5.02-9.06.36-14.16h0Z"/>
      <g>
        <circle class="st0" cx="66.95" cy="34.13" r="12"/>
        <path class="st0" d="M67.27,46.13c-6.85,0-12.42-5.57-12.42-12.42s5.57-12.42,12.42-12.42,12.42,5.57,12.42,12.42-5.57,12.42-12.42,12.42ZM67.27,22.3c-6.29,0-11.42,5.12-11.42,11.42s5.12,11.42,11.42,11.42,11.42-5.12,11.42-11.42-5.12-11.42-11.42-11.42Z"/>
      </g>
    </g>
  </g>
  <g id="Light">
    <g id="Access_Lense1" data-name="Access_Lense">
      <g>
        <path class="st1" d="M235.75,63.53h-28.17l-5.37,13h-13.45l26.3-59h13.49l26.39,59h-13.79l-5.37-13ZM231.1,53.53l-9.39-22.66-9.39,22.66h18.78Z"/>
        <path class="st1" d="M256.64,46.54c0-17.84,13.7-30.61,32.13-30.61,10.23,0,18.77,3.72,24.35,10.49l-8.79,8.12c-3.97-4.57-8.96-6.93-14.88-6.93-11.08,0-18.94,7.78-18.94,18.94s7.86,18.94,18.94,18.94c5.92,0,10.91-2.37,14.88-7.02l8.79,8.12c-5.58,6.85-14.12,10.57-24.44,10.57-18.35,0-32.05-12.77-32.05-30.61h0Z"/>
        <path class="st1" d="M317.35,46.54c0-17.84,13.7-30.61,32.13-30.61,10.23,0,18.77,3.72,24.35,10.49l-8.79,8.12c-3.97-4.57-8.96-6.93-14.88-6.93-11.08,0-18.94,7.78-18.94,18.94s7.86,18.94,18.94,18.94c5.92,0,10.91-2.37,14.88-7.02l8.79,8.12c-5.58,6.85-14.12,10.57-24.44,10.57-18.35,0-32.05-12.77-32.05-30.61h0Z"/>
        <path class="st1" d="M428.34,65.54v10.99h-45V17.53h44v10h-30v13h27v11h-28v14h32Z"/>
        <path class="st1" d="M435.15,70.53l4.65-10.32c4.99,3.64,12.43,6.17,19.53,6.17,8.12,0,11.42-2.71,11.42-6.34,0-11.08-34.42-3.47-34.42-25.45,0-10.06,8.12-18.44,24.95-18.44,7.44,0,15.05,1.78,20.55,5.24l-4.23,10.4c-5.5-3.13-11.16-4.65-16.41-4.65-8.12,0-11.25,3.04-11.25,6.77,0,10.91,34.42,3.38,34.42,25.12,0,9.89-8.2,18.35-25.12,18.35-9.39,0-18.86-2.79-24.1-6.85h0Z"/>
        <path class="st1" d="M489.09,70.53l4.65-10.32c4.99,3.64,12.43,6.17,19.53,6.17,8.12,0,11.42-2.71,11.42-6.34,0-11.08-34.42-3.47-34.42-25.45,0-10.06,8.12-18.44,24.95-18.44,7.44,0,15.05,1.78,20.55,5.24l-4.23,10.4c-5.5-3.13-11.16-4.65-16.41-4.65-8.12,0-11.25,3.04-11.25,6.77,0,10.91,34.42,3.38,34.42,25.12,0,9.89-8.2,18.35-25.12,18.35-9.39,0-18.86-2.79-24.1-6.85h0Z"/>
      </g>
      <g>
        <path class="st1" d="M196.34,95.52v53.01h34v5h-40v-58h6Z"/>
        <path class="st1" d="M292.34,126.52v22.01h36v5h-43v-58h41v6h-35v20h32v5h-31Z"/>
        <path class="st1" d="M429.35,96.53h5.99v57h-5.63l-38.78-48h-.18s.59,9.23.59,14.15v33.85h-6v-57h5.71l38.69,48h.19s-.59-10.63-.59-13.97v-34.02h0Z"/>
        <path class="st1" d="M494.57,149.65l2.12-5.39c4.86,2.39,11.75,4.86,19.44,4.86,11.22,0,16.44-5.66,16.44-12.02,0-3.36-1.5-6.01-4.42-7.6-2.47-1.41-6.98-2.21-12.46-2.83-6.01-.71-10.69-1.59-14.23-3.45-5.39-2.74-7.42-7.07-7.42-12.2,0-9.1,8.75-16.17,21.74-16.17,7.96,0,14.32,1.68,19.53,4.24l-2.03,5.3c-4.33-2.03-10.96-3.89-17.5-3.89-10.69,0-15.47,5.04-15.47,10.52,0,3,1.15,5.48,4.6,7.42,2.56,1.33,6.63,1.86,12.02,2.56,5.75.71,11.14,1.77,14.14,3.36,5.13,2.83,7.78,6.98,7.78,12.73,0,9.54-8.22,17.68-22.71,17.68-9.1,0-15.73-1.94-21.56-5.13h-.01Z"/>
      </g>
    </g>
    <g id="Magnifying_Glass1" data-name="Magnifying_Glass">
      <g>
        <path class="st1" d="M66.38,0C29.78,0,0,29.78,0,66.38s29.78,66.38,66.38,66.38,66.38-29.78,66.38-66.38S102.99,0,66.38,0ZM66.38,13.49c18.4,0,34.64,9.45,44.12,23.76-8.97,6.55-45.73,29.38-87.89-.53,9.53-14.01,25.59-23.23,43.77-23.23ZM13.8,66.38c0-7.28,1.48-14.22,4.15-20.54,6.79,3.45,36.56,19.29,35.38,31.7-1.21,12.72-11.99,30.87-13.96,34.1-15.31-9.27-25.56-26.09-25.56-45.27h0ZM49.14,116.38c2.16-3.62,12.57-20.62,18.02-20.54,5.31.08,15.63,15.79,18.24,19.89-5.91,2.28-12.31,3.55-19.02,3.55-6.04,0-11.84-1.03-17.24-2.91ZM96.12,110.1c-4.03-5.32-13.81-19.42-15.01-32.01-.24-12.21,28.15-28.63,34.13-31.95,2.6,6.24,4.04,13.08,4.04,20.25,0,18.14-9.19,34.18-23.15,43.71Z"/>
        <path class="st1" d="M48.91,118.07l-10.81-5.31.26-.42c.13-.21,12.89-20.67,14.2-34.41,1.3-13.53-36.11-31.75-36.49-31.93l-.41-.2,5.26-10.42.43.31c25.28,18.64,48.64,17.65,63.79,13.55,16.44-4.45,27.05-13.44,27.16-13.53l.49-.41,4.11,10.87-.35.19c-.35.19-35.25,18.93-34.99,32.15,1.48,15.55,16.48,33.76,16.63,33.94l.4.49-12.77,4.75-.2-.31c-3.51-5.72-13.68-20.59-18.48-20.65h-.04c-4.8,0-14.61,15.15-17.99,21l-.21.37v-.02ZM39.39,112.41l9.17,4.5c1.71-2.91,12.64-21.08,18.57-21.08h.04c5.93.09,17.35,18.05,19.04,20.77l10.9-4.06c-2.42-3.04-15.07-19.56-16.44-33.97-.26-13.22,31.2-30.69,35.12-32.8l-3.38-8.95c-2.28,1.82-12.35,9.34-26.98,13.3-15.26,4.14-38.76,5.16-64.17-13.37l-4.37,8.65c1.93.95,10.34,5.22,18.52,10.78,12.56,8.52,18.64,15.88,18.06,21.86-1.22,12.84-12.23,31.35-14.08,34.38h0Z"/>
      </g>
      <path class="st1" d="M149.62,134.68l-21.94-21.94-2.83,2.83-8.01-8.01-9.78,9.92,7.93,7.93-2.98,2.98,22.57,22.57c5.13,4.3,10.39,2.94,14.68-2.13,4.41-4.32,5.02-9.06.36-14.16h0Z"/>
      <g>
        <circle class="st1" cx="66.95" cy="34.13" r="12"/>
        <path class="st1" d="M67.27,46.13c-6.85,0-12.42-5.57-12.42-12.42s5.57-12.42,12.42-12.42,12.42,5.57,12.42,12.42-5.57,12.42-12.42,12.42ZM67.27,22.3c-6.29,0-11.42,5.12-11.42,11.42s5.12,11.42,11.42,11.42,11.42-5.12,11.42-11.42-5.12-11.42-11.42-11.42Z"/>
      </g>
    </g>
  </g>
</svg>